<?xml version="1.0" standalone="no"?>
<!DOCTYPE svg PUBLIC "-//W3C//DTD SVG 20010904//EN"
 "http://www.w3.org/TR/2001/REC-SVG-20010904/DTD/svg10.dtd">
<svg version="1.0" xmlns="http://www.w3.org/2000/svg"
 width="3338.000000pt" height="3338.000000pt" viewBox="0 0 3338.000000 3338.000000"
 preserveAspectRatio="xMidYMid meet">

<g transform="translate(0.000000,3338.000000) scale(0.100000,-0.100000)"
fill="#000000" stroke="none">
<path d="M0 16690 l0 -16690 16688 2 16687 3 3 16688 2 16687 -16690 0 -16690
0 0 -16690z m33330 5 l0 -16645 -16645 0 -16645 0 0 16645 0 16645 16645 0
16645 0 0 -16645z"/>
<path d="M6513 24554 c3 -3 871 -599 1929 -1325 l1923 -1319 1154 0 c1094 0
1153 -1 1147 -17 -4 -10 -893 -1786 -1977 -3947 -1083 -2161 -1968 -3931
-1965 -3933 5 -5 3168 -65 3172 -60 1 1 896 1790 1988 3975 1093 2185 1992
3975 1999 3978 7 2 1356 3 2998 2 l2986 -3 -368 -990 -367 -990 -54 -3 c-29
-2 -1356 8 -2948 23 -1592 14 -2965 25 -3050 23 l-155 -3 5600 -5464 c3080
-3006 5665 -5528 5744 -5605 140 -137 143 -139 114 -86 -76 137 -4713 8837
-4719 8853 -6 16 42 17 912 17 l919 1 690 1387 c379 763 1150 2311 1712 3440
l1022 2052 -10206 0 c-5614 0 -10204 -3 -10200 -6z"/>
</g>
</svg>
